# xmcd
#
# Track frame offsets:
#	150
#	16870
#	32186
#	49548
#	61898
#	77409
#	89374
#	103592
#	116935
#	130249
#	148768
#	172382
#	205546
#	223542
#	238849
#	255645
#	273957
#	284645
#	306142
#	322382
#
# Disc length: 4439 seconds
#
# Revision: 1
# Processed by: cddbd v1.5.1PL2 Copyright (c) Steve Scherf et al.
# Submitted via: audiograbber 1.83.01
#
DISCID=2e115514
DTITLE=Diverse - Ons Gewildste Nommer 1 country treffers
DYEAR=1900
DGENRE=Country
TTITLE0=Freddy Star - Amazed
TTITLE1=Foster and Allen - I will love you all my life
TTITLE2=Bellamy Brothers - Let your love flow (2000 dance mix)
TTITLE3=Clive Bruce - Seven spanish angels
TTITLE4=Anne Murray - There goes my everything
TTITLE5=Kenny Rogers - But you know that I love you
TTITLE6=Freda Francis - Silver threads and golden needles
TTITLE7=Gene Rockwell - Wasted days and wasted nights
TTITLE8=J.J Stevens - Can't help falling in love with you
TTITLE9=Kurt Darren - I cry
TTITLE10=The country chix - Lekker country dans keurspel (Don't be stupid, man 
TTITLE10=I feel like a woman, that don't impress me much)
TTITLE11=Boogie Woogie singers - Country Keurspel (Adios amigo, Are you lonesom
TTITLE11=e tonight, Patches, Medals for mothers)
TTITLE12=Vangie Coker - Blue bayou
TTITLE13=Rocking horse - Sugar daddy
TTITLE14=Leigh Anne - In love with you
TTITLE15=Country chix - You're still the one keurspel (I breathe, How do I live
TTITLE15=)
TTITLE16=Tommy Dell - Wooden heart
TTITLE17=Kenny Oliver - The city of New Orleans
TTITLE18=Pierre de Charmoy - Live on
TTITLE19=Lance James - The last thing on my mind
EXTD=
EXTT0=
EXTT1=
EXTT2=
EXTT3=
EXTT4=
EXTT5=
EXTT6=
EXTT7=
EXTT8=
EXTT9=
EXTT10=
EXTT11=
EXTT12=
EXTT13=
EXTT14=
EXTT15=
EXTT16=
EXTT17=
EXTT18=
EXTT19=
PLAYORDER=
